<?xml version="1.0" encoding="utf-8"?>
<!-- Generator: Adobe Illustrator 21.1.0, SVG Export Plug-In . SVG Version: 6.00 Build 0)  -->
<svg version="1.1" id="Layer_1" xmlns="http://www.w3.org/2000/svg" xmlns:xlink="http://www.w3.org/1999/xlink" x="0px" y="0px"
	 viewBox="0 0 1820 244" style="enable-background:new 0 0 1820 244;" xml:space="preserve">
<style type="text/css">
	.st0{fill:#FFFFFF;}
</style>
<g>
	<g>
		<path class="st0" d="M840.8,17.7c-19.2-12.3-43.2-12.3-71-12.3H697v234.2h65.2v-75h22.6c20.9,0,39.5-0.8,56.2-10.6
			c21.7-12.9,33.2-36.4,33.2-67.8C874.2,56.1,862.1,31.1,840.8,17.7z M807.1,84.1c0,17.9-8.9,23.6-36.6,23.6h-8.3V61.2h8.9
			C798.4,61.2,807.1,66.8,807.1,84.1z"/>
		<path class="st0" d="M946.6,5.4l-81,234.2h69.2l11.8-40.7h83l11.4,40.7h69.3L1029.2,5.4H946.6z M1014.4,147.7h-52.4l21.6-70.6
			l0.5-1.6c0.8-3,2.2-8.2,4.1-15.5c2.2,9,3.7,14.7,4.4,17.2L1014.4,147.7z"/>
		<path class="st0" d="M1238.3-0.1c-69,0-119,51.6-119,122.6c0,71.1,50.1,122.7,119,122.7c20.5,0,39.7-4.7,60.4-14.7l2-0.9v-78.9
			l-6,6.7c-16.5,18.4-31.4,26.2-49.9,26.2c-32.7,0-56.4-25.2-56.4-59.8c0-37.3,22.7-62.3,56.4-62.3c18.6,0,33.5,7.8,49.9,26.2l6,6.8
			V15.5l-2-0.9C1278,4.6,1258.8-0.1,1238.3-0.1z"/>
		<rect x="1341.5" y="5.4" class="st0" width="69.7" height="234.2"/>
		<path class="st0" d="M1628.4,121c0,7.1,0.4,15.4,1.3,25.1c-6.2-12.5-10.5-20.1-12.3-22.4l-87-118.4h-65.1v234.2h66.8V123.9
			c0-7.1-0.4-15.4-1.3-25.1c6.1,12.2,10.4,19.8,12.3,22.1l87,118.7h64.7V5.4h-66.5V121z"/>
		<rect x="1749.4" y="5.4" class="st0" width="69.6" height="234.2"/>
	</g>
	<g>
		<path class="st0" d="M244.6,193.5c-18.2,20.3-39.3,35.7-61.2,46.1h98.3C265.4,227.1,252.5,211.4,244.6,193.5z"/>
		<path class="st0" d="M50.9,229.9C0.7,185.6,6.6,96.9,64.1,31.7C72.8,21.8,82.3,13,92.2,5.4H0.3v234.2h63.6
			C59.4,236.7,55,233.5,50.9,229.9z"/>
		<path class="st0" d="M270,5.4c11.8,14.6,19.1,32.4,21.9,51.8c22.2-13.8,49.4-22,78.9-22c74.5,0,134.9,52.2,134.9,116.7
			c0,34.9-17.8,66.3-45.9,87.7h63.7V5.4H270z"/>
		<path class="st0" d="M208.9,43.9c21.2,9.6,43.4,6.3,49.6-7.3c4.3-9.5-0.5-21.6-11-31.3h-67.1C177.4,18.5,189.4,35.1,208.9,43.9z"
			/>
		<path class="st0" d="M408.1,77.4c-5.1-0.5-10.2,0.4-15.1,1.3c-3.7,0.6-7.6,1.3-11.2,1.4c-2-0.1-3.8,0.6-5.5,1.2
			c-1.9,0.7-3.5,1.3-5.3,0.8c-2.6-6.1-3.3-11.8-1.9-17.6l0.1-0.4l-0.1-0.4c-0.2-0.8-0.2-1.8-0.3-2.7c-0.2-2.3-0.4-4.9-2.1-6.8
			l-1.1-1.2l-1.2,1.2c-4.9,4.8-8.1,11-10.3,19.5c-0.3,1-0.3,2.1-0.3,3.1c0,1.6,0,2.4-0.5,2.8c-2.1-0.2-4.3-0.5-6.5-0.8
			c-7.8-1-15.9-2.1-23.4,1l-2.5,1l2,1.7c2,1.7,4.5,1.9,6.7,2.1c1.1,0.1,2.1,0.2,2.9,0.4l0.5,1.5c1.9-0.2,4,1,5.9,2.1
			c1.3,0.6,2.7,1,4.1,1.4c2,0.5,3.7,0.9,4.8,2.1c-1.1,1.4-2.7,2.2-4.7,3.2c-2.2,1.1-4.8,2.3-6.3,4.8c-4.6,1.5-7.5,4.6-10.3,7.5
			c-1.9,2-3.7,4-6,5.4l-0.5,0.3l-0.2,0.6c0,0.1-0.2,0.4-0.4,0.6c-0.5,0.7-1.6,2.1-0.5,3.8l0.7,1.1l1.2-0.5c1.9-0.8,3.5-2.1,5-3.4
			c0.4-0.3,0.8-0.7,1.2-1l0.2,1.7l2-0.8c1.4-0.6,2.9-1.1,4.4-1.7c3-1.1,6.1-2.2,9.1-4l0.1,0c5.5-0.8,11.2-1.6,16.7-3.9
			c0.4,0.3,0.7,0.8,1.1,1.3c0.9,1.1,2,2.5,3.9,2.9l0.3,0.1l0.3,0c5.1-0.7,8.1,3.4,10.5,7.9l0.7,1.3l1.4-0.6c2.3-1,2-3.3,1.9-4.4
			c-0.1-0.4-0.1-0.8-0.1-1l0-0.2l0-0.2c-0.5-3.1-2.1-6.8-4.2-9.7c-0.9-1-0.8-1.7-0.7-1.9c0.2-0.9,1.3-1.9,2.9-2.5
			c2.1-1.1,4.3-2,6.3-2.8c4.3-1.7,8.3-3.4,11.8-7c4.6-1.3,8.8-4.1,13.4-8.7l2.4-2.5L408.1,77.4z"/>
	</g>
</g>
</svg>
